<svg width="0" height="0" class="hidden">
  <symbol fill="none" xmlns="http://www.w3.org/2000/svg" viewBox="0 0 13 22" id="fb">
    <path d="M12 1H9C7.67392 1 6.40215 1.52678 5.46447 2.46447C4.52678 3.40215 4 4.67392 4 6V9H1V13H4V21H8V13H11L12 9H8V6C8 5.73478 8.10536 5.48043 8.29289 5.29289C8.48043 5.10536 8.73478 5 9 5H12V1Z" stroke="black" stroke-width="2" stroke-linecap="round" stroke-linejoin="round"></path>
  </symbol>
  <symbol fill="none" xmlns="http://www.w3.org/2000/svg" viewBox="0 0 24 24" id="instagram">
    <path d="M17 2H7C4.23858 2 2 4.23858 2 7V17C2 19.7614 4.23858 22 7 22H17C19.7614 22 22 19.7614 22 17V7C22 4.23858 19.7614 2 17 2Z" stroke="black" stroke-width="2" stroke-linecap="round" stroke-linejoin="round"></path>
    <path d="M16 11.3701C16.1234 12.2023 15.9812 13.0523 15.5937 13.7991C15.2062 14.5459 14.5931 15.1515 13.8416 15.5297C13.0901 15.908 12.2384 16.0397 11.4077 15.906C10.5771 15.7723 9.80971 15.3801 9.21479 14.7852C8.61987 14.1903 8.22768 13.4229 8.09402 12.5923C7.96035 11.7616 8.09202 10.91 8.47028 10.1584C8.84854 9.40691 9.45414 8.7938 10.2009 8.4063C10.9477 8.0188 11.7977 7.87665 12.63 8.00006C13.4789 8.12594 14.2648 8.52152 14.8716 9.12836C15.4785 9.73521 15.8741 10.5211 16 11.3701Z" stroke="black" stroke-width="2" stroke-linecap="round" stroke-linejoin="round"></path>
    <path d="M17.5 6.5H17.51" stroke="black" stroke-width="2" stroke-linecap="round" stroke-linejoin="round"></path>
  </symbol>
  <symbol xmlns="http://www.w3.org/2000/svg" viewBox="0 0 512 512" id="left-arrow">
    <path fill="#ffff" d="M497.333 239.999H80.092l95.995-95.995l-22.627-22.627L18.837 256L153.46 390.623l22.627-22.627l-95.997-95.997h417.243z"></path>
  </symbol>
  <symbol fill="none" xmlns="http://www.w3.org/2000/svg" viewBox="0 0 24 24" id="linkedin">
    <path d="M16 8C17.5913 8 19.1174 8.63214 20.2426 9.75736C21.3679 10.8826 22 12.4087 22 14V21H18V14C18 13.4696 17.7893 12.9609 17.4142 12.5858C17.0391 12.2107 16.5304 12 16 12C15.4696 12 14.9609 12.2107 14.5858 12.5858C14.2107 12.9609 14 13.4696 14 14V21H10V14C10 12.4087 10.6321 10.8826 11.7574 9.75736C12.8826 8.63214 14.4087 8 16 8Z" stroke="black" stroke-width="2" stroke-linecap="round" stroke-linejoin="round"></path>
    <path d="M6 9H2V21H6V9Z" stroke="black" stroke-width="2" stroke-linecap="round" stroke-linejoin="round"></path>
    <path d="M4 6C5.10457 6 6 5.10457 6 4C6 2.89543 5.10457 2 4 2C2.89543 2 2 2.89543 2 4C2 5.10457 2.89543 6 4 6Z" stroke="black" stroke-width="2" stroke-linecap="round" stroke-linejoin="round"></path>
  </symbol>
  <symbol fill="none" xmlns="http://www.w3.org/2000/svg" viewBox="0 0 156 45" id="logo">
    <path d="M3.37607 24.6932V6.51142H10.8867C12.248 6.51142 13.4228 6.77775 14.4112 7.31042C15.4055 7.83718 16.172 8.57404 16.7106 9.52101C17.2492 10.4621 17.5185 11.557 17.5185 12.8058C17.5185 14.0605 17.2433 15.1584 16.6928 16.0995C16.1483 17.0346 15.37 17.7596 14.358 18.2746C13.3459 18.7895 12.1444 19.0469 10.7536 19.0469H6.11932V15.5846H9.93679C10.5997 15.5846 11.1531 15.4692 11.5969 15.2383C12.0468 15.0075 12.3871 14.685 12.6179 14.2707C12.8487 13.8504 12.9641 13.3622 12.9641 12.8058C12.9641 12.2435 12.8487 11.7582 12.6179 11.3498C12.3871 10.9355 12.0468 10.6159 11.5969 10.391C11.1471 10.1661 10.5938 10.0537 9.93679 10.0537H7.7706V24.6932H3.37607ZM19.6847 24.6932V11.0569H23.9016V13.5427H24.0437C24.2923 12.643 24.6977 11.9743 25.2599 11.5363C25.8222 11.0924 26.4762 10.8704 27.2219 10.8704C27.4232 10.8704 27.6303 10.8852 27.8434 10.9148C28.0565 10.9385 28.2547 10.977 28.4382 11.0302V14.8033C28.2311 14.7323 27.9588 14.6761 27.6214 14.6346C27.29 14.5932 26.9941 14.5725 26.7337 14.5725C26.2188 14.5725 25.7541 14.6879 25.3398 14.9187C24.9315 15.1436 24.6089 15.4603 24.3722 15.8687C24.1413 16.2711 24.0259 16.7446 24.0259 17.2891V24.6932H19.6847ZM33.2766 29.8069C32.7558 29.8069 32.2646 29.7654 31.8029 29.6826C31.3413 29.6056 30.9447 29.5021 30.6133 29.3719L31.5721 26.2202C31.9982 26.3623 32.3829 26.4451 32.7262 26.4688C33.0754 26.4925 33.3743 26.4363 33.6229 26.3001C33.8774 26.1699 34.0727 25.9361 34.2088 25.5988L34.3775 25.1904L29.5302 11.0569H34.0756L36.5881 20.787H36.7301L39.2781 11.0569H43.8501L38.7099 25.9983C38.4613 26.744 38.1091 27.401 37.6534 27.9692C37.2036 28.5433 36.6206 28.9931 35.9045 29.3186C35.1942 29.6441 34.3183 29.8069 33.2766 29.8069ZM50.0558 24.8885C49.0496 24.8885 48.1352 24.6281 47.3125 24.1073C46.4898 23.5865 45.8329 22.8052 45.3416 21.7635C44.8504 20.7219 44.6048 19.4287 44.6048 17.8839C44.6048 16.28 44.8593 14.9602 45.3683 13.9244C45.8772 12.8887 46.5431 12.1222 47.3658 11.6251C48.1944 11.1279 49.0851 10.8793 50.038 10.8793C50.7541 10.8793 51.3667 11.0036 51.8757 11.2522C52.3847 11.4948 52.8049 11.8085 53.1364 12.1932C53.4678 12.5779 53.7193 12.9774 53.891 13.3917H53.9798V6.51142H58.321V24.6932H54.0241V22.4827H53.891C53.7075 22.9029 53.4471 23.2965 53.1097 23.6634C52.7724 24.0304 52.3492 24.3263 51.8402 24.5512C51.3371 24.7761 50.7423 24.8885 50.0558 24.8885ZM51.565 21.5061C52.0917 21.5061 52.5415 21.3581 52.9144 21.0622C53.2873 20.7604 53.5743 20.3372 53.7756 19.7927C53.9768 19.2482 54.0774 18.609 54.0774 17.8751C54.0774 17.1293 53.9768 16.4872 53.7756 15.9486C53.5803 15.41 53.2932 14.9957 52.9144 14.7057C52.5415 14.4157 52.0917 14.2707 51.565 14.2707C51.0264 14.2707 50.5707 14.4186 50.1978 14.7145C49.8249 15.0105 49.5408 15.4277 49.3455 15.9663C49.1561 16.5049 49.0614 17.1412 49.0614 17.8751C49.0614 18.609 49.1591 19.2482 49.3544 19.7927C49.5497 20.3372 49.8308 20.7604 50.1978 21.0622C50.5707 21.3581 51.0264 21.5061 51.565 21.5061ZM67.4408 24.9507C66.0144 24.9507 64.7834 24.6696 63.7476 24.1073C62.7178 23.5391 61.9247 22.7312 61.3683 21.6836C60.8179 20.6301 60.5427 19.3784 60.5427 17.9283C60.5427 16.5197 60.8209 15.2886 61.3772 14.2351C61.9336 13.1757 62.7178 12.353 63.7298 11.7671C64.7419 11.1752 65.9345 10.8793 67.3076 10.8793C68.2783 10.8793 69.166 11.0302 69.971 11.3321C70.7759 11.6339 71.4713 12.0808 72.0573 12.6726C72.6432 13.2645 73.0989 13.9954 73.4244 14.8655C73.75 15.7296 73.9127 16.7209 73.9127 17.8395V18.9226H62.0608V16.4013H69.8733C69.8674 15.9397 69.7579 15.5283 69.5448 15.1673C69.3318 14.8063 69.0388 14.5251 68.6659 14.3239C68.299 14.1168 67.8758 14.0132 67.3964 14.0132C66.9111 14.0132 66.4761 14.1227 66.0914 14.3417C65.7066 14.5547 65.4018 14.8477 65.1769 15.2206C64.952 15.5875 64.8337 16.0048 64.8218 16.4724V19.0381C64.8218 19.5944 64.9313 20.0827 65.1503 20.5029C65.3693 20.9172 65.68 21.2398 66.0825 21.4706C66.4849 21.7014 66.9643 21.8168 67.5207 21.8168C67.9054 21.8168 68.2546 21.7635 68.5683 21.657C68.882 21.5505 69.1512 21.3936 69.3762 21.1865C69.6011 20.9793 69.7697 20.7248 69.8822 20.423L73.8683 20.5384C73.7026 21.4321 73.3386 22.2104 72.7764 22.8733C72.22 23.5302 71.4891 24.0422 70.5835 24.4091C69.678 24.7702 68.6304 24.9507 67.4408 24.9507ZM75.7482 9.27243V6.51142H90.2546V9.27243H84.6349V24.6932H81.3679V9.27243H75.7482ZM91.4931 24.6932V11.0569H94.6092V13.3296H94.7512C94.9998 12.5424 95.426 11.9358 96.0297 11.5096C96.6393 11.0776 97.3347 10.8616 98.1159 10.8616C98.2935 10.8616 98.4918 10.8704 98.7108 10.8882C98.9357 10.9 99.1221 10.9207 99.2701 10.9503V13.9067C99.1339 13.8593 98.9179 13.8179 98.622 13.7824C98.332 13.7409 98.0508 13.7202 97.7786 13.7202C97.1926 13.7202 96.6659 13.8475 96.1983 14.102C95.7367 14.3506 95.3727 14.6968 95.1064 15.1407C94.84 15.5846 94.7069 16.0965 94.7069 16.6765V24.6932H91.4931ZM105.085 24.9685C104.221 24.9685 103.443 24.8146 102.75 24.5068C102.064 24.1931 101.519 23.7315 101.117 23.1219C100.72 22.5122 100.522 21.7606 100.522 20.8669C100.522 20.0975 100.664 19.4612 100.948 18.9582C101.232 18.4551 101.62 18.0526 102.111 17.7508C102.602 17.4489 103.156 17.2211 103.771 17.0672C104.393 16.9074 105.035 16.792 105.698 16.7209C106.497 16.6381 107.145 16.5641 107.642 16.499C108.139 16.428 108.5 16.3214 108.725 16.1794C108.956 16.0314 109.071 15.8036 109.071 15.4958V15.4425C109.071 14.7737 108.873 14.2559 108.476 13.8889C108.08 13.522 107.509 13.3385 106.763 13.3385C105.976 13.3385 105.351 13.5101 104.89 13.8534C104.434 14.1967 104.126 14.6021 103.966 15.0697L100.966 14.6435C101.202 13.8149 101.593 13.1225 102.138 12.5661C102.682 12.0038 103.348 11.5836 104.135 11.3055C104.922 11.0214 105.792 10.8793 106.745 10.8793C107.402 10.8793 108.056 10.9563 108.707 11.1101C109.358 11.264 109.953 11.5185 110.492 11.8736C111.03 12.2228 111.462 12.6993 111.788 13.303C112.119 13.9067 112.285 14.6613 112.285 15.5668V24.6932H109.195V22.82H109.089C108.894 23.1988 108.618 23.5539 108.263 23.8854C107.914 24.2109 107.473 24.4743 106.941 24.6755C106.414 24.8708 105.795 24.9685 105.085 24.9685ZM105.92 22.6069C106.565 22.6069 107.124 22.4797 107.597 22.2252C108.071 21.9648 108.435 21.6215 108.689 21.1954C108.95 20.7692 109.08 20.3046 109.08 19.8015V18.1947C108.979 18.2775 108.808 18.3545 108.565 18.4255C108.328 18.4965 108.062 18.5586 107.766 18.6119C107.47 18.6652 107.177 18.7125 106.887 18.754C106.597 18.7954 106.346 18.8309 106.133 18.8605C105.653 18.9256 105.224 19.0321 104.845 19.1801C104.467 19.3281 104.168 19.5352 103.949 19.8015C103.73 20.062 103.62 20.3993 103.62 20.8136C103.62 21.4055 103.836 21.8523 104.268 22.1542C104.7 22.456 105.251 22.6069 105.92 22.6069ZM127.209 11.0569L122.352 24.6932H118.801L113.945 11.0569H117.372L120.506 21.1865H120.648L123.791 11.0569H127.209ZM135.006 24.9596C133.638 24.9596 132.458 24.6755 131.463 24.1073C130.475 23.5332 129.714 22.7224 129.182 21.6748C128.649 20.6213 128.383 19.3813 128.383 17.955C128.383 16.5523 128.649 15.3212 129.182 14.2618C129.72 13.1964 130.472 12.3678 131.437 11.776C132.401 11.1782 133.535 10.8793 134.837 10.8793C135.677 10.8793 136.47 11.0154 137.216 11.2877C137.968 11.554 138.631 11.9683 139.205 12.5306C139.785 13.0929 140.241 13.809 140.572 14.679C140.903 15.5431 141.069 16.573 141.069 17.7685V18.754H129.892V16.5878H137.989C137.983 15.9722 137.849 15.4248 137.589 14.9454C137.329 14.46 136.965 14.0783 136.497 13.8001C136.035 13.522 135.497 13.3829 134.881 13.3829C134.224 13.3829 133.647 13.5427 133.15 13.8623C132.653 14.176 132.265 14.5903 131.987 15.1052C131.715 15.6142 131.576 16.1735 131.57 16.7831V18.6741C131.57 19.4671 131.715 20.1478 132.005 20.716C132.295 21.2782 132.7 21.7103 133.221 22.0121C133.742 22.3081 134.352 22.456 135.05 22.456C135.518 22.456 135.941 22.3909 136.32 22.2607C136.698 22.1246 137.027 21.9263 137.305 21.6659C137.583 21.4055 137.793 21.0829 137.935 20.6982L140.936 21.0356C140.747 21.8287 140.386 22.5211 139.853 23.113C139.326 23.6989 138.651 24.1546 137.829 24.4802C137.006 24.7998 136.065 24.9596 135.006 24.9596ZM147.002 6.51142V24.6932H143.788V6.51142H147.002ZM152.286 24.8885C151.748 24.8885 151.286 24.6992 150.901 24.3204C150.517 23.9416 150.327 23.4799 150.333 22.9354C150.327 22.4028 150.517 21.947 150.901 21.5682C151.286 21.1894 151.748 21.0001 152.286 21.0001C152.807 21.0001 153.26 21.1894 153.645 21.5682C154.035 21.947 154.234 22.4028 154.239 22.9354C154.234 23.2965 154.139 23.6249 153.955 23.9209C153.778 24.2168 153.541 24.4535 153.245 24.6311C152.955 24.8027 152.636 24.8885 152.286 24.8885Z" fill="white"></path>
    <path d="M2 33.6932C15.6667 40.1932 49.8 49.2932 77 33.6932" stroke="#CCF32F" stroke-width="4" stroke-linecap="round"></path>
  </symbol>
  <symbol xmlns="http://www.w3.org/2000/svg" viewBox="0 0 24 24" id="right-arrow">
    <path fill="black" d="M17.92 11.62a1 1 0 0 0-.21-.33l-5-5a1 1 0 0 0-1.42 1.42l3.3 3.29H7a1 1 0 0 0 0 2h7.59l-3.3 3.29a1 1 0 0 0 0 1.42a1 1 0 0 0 1.42 0l5-5a1 1 0 0 0 .21-.33a1 1 0 0 0 0-.76"></path>
  </symbol>
  <symbol fill="none" xmlns="http://www.w3.org/2000/svg" viewBox="0 0 29 28" id="star">
    <path d="M14.5 1.58325L18.4913 9.66909L27.4167 10.9737L20.9584 17.2641L22.4825 26.1508L14.5 21.9528L6.51754 26.1508L8.04171 17.2641L1.58337 10.9737L10.5088 9.66909L14.5 1.58325Z" fill="#FFB800" stroke="#FFB800" stroke-width="2" stroke-linecap="round" stroke-linejoin="round"></path>
  </symbol>
  <symbol fill="none" xmlns="http://www.w3.org/2000/svg" viewBox="0 0 55 51" id="vector (1)">
    <path d="M47.9375 33.875V34.375H48.4375H52.625C53.0477 34.375 53.4531 34.5429 53.752 34.8418C54.0508 35.1407 54.2188 35.5461 54.2188 35.9688C54.2188 36.3914 54.0508 36.7968 53.752 37.0957C53.4531 37.3946 53.0477 37.5625 52.625 37.5625H40.0625C39.6398 37.5625 39.2344 37.3946 38.9355 37.0957C38.6367 36.7968 38.4688 36.3914 38.4688 35.9688C38.4688 35.5461 38.6367 35.1407 38.9355 34.8418C39.2344 34.5429 39.6398 34.375 40.0625 34.375H44.25H44.75V33.875V2.46875C44.75 2.04606 44.9179 1.64068 45.2168 1.3418C45.5157 1.04291 45.9211 0.875 46.3438 0.875C46.7664 0.875 47.1718 1.04291 47.4707 1.3418C47.7696 1.64068 47.9375 2.04606 47.9375 2.46875V33.875ZM10.25 25.5V26H10.75H14.9375C15.3602 26 15.7656 26.1679 16.0645 26.4668C16.3633 26.7657 16.5312 27.1711 16.5312 27.5938C16.5312 28.0164 16.3633 28.4218 16.0645 28.7207C15.7656 29.0196 15.3602 29.1875 14.9375 29.1875H2.375C1.95231 29.1875 1.54693 29.0196 1.24805 28.7207C0.949163 28.4218 0.78125 28.0164 0.78125 27.5938C0.78125 27.1711 0.949163 26.7657 1.24805 26.4668C1.54693 26.1679 1.95231 26 2.375 26H6.5625H7.0625V25.5V2.46875C7.0625 2.04606 7.23041 1.64069 7.5293 1.3418C7.82819 1.04291 8.23356 0.875 8.65625 0.875C9.07894 0.875 9.48431 1.04291 9.7832 1.3418C10.0821 1.64069 10.25 2.04606 10.25 2.46875V25.5ZM29.0938 12.9375V13.4375H29.5938H33.7812C34.2039 13.4375 34.6093 13.6054 34.9082 13.9043C35.2071 14.2032 35.375 14.6086 35.375 15.0312C35.375 15.4539 35.2071 15.8593 34.9082 16.1582C34.6093 16.4571 34.2039 16.625 33.7812 16.625H21.2188C20.7961 16.625 20.3907 16.4571 20.0918 16.1582C19.7929 15.8593 19.625 15.4539 19.625 15.0312C19.625 14.6086 19.7929 14.2032 20.0918 13.9043C20.3907 13.6054 20.7961 13.4375 21.2188 13.4375H25.4062H25.9062V12.9375V2.46875C25.9062 2.04606 26.0742 1.64069 26.373 1.3418C26.6719 1.04291 27.0773 0.875 27.5 0.875C27.9227 0.875 28.3281 1.04291 28.627 1.3418C28.9258 1.64068 29.0938 2.04606 29.0938 2.46875V12.9375ZM29.0938 23.4062V48.5312C29.0938 48.9539 28.9258 49.3593 28.627 49.6582C28.3281 49.9571 27.9227 50.125 27.5 50.125C27.0773 50.125 26.6719 49.9571 26.373 49.6582C26.0742 49.3593 25.9062 48.9539 25.9062 48.5312V23.4062C25.9062 22.9836 26.0742 22.5782 26.373 22.2793C26.6719 21.9804 27.0773 21.8125 27.5 21.8125C27.9227 21.8125 28.3281 21.9804 28.627 22.2793C28.9258 22.5782 29.0938 22.9836 29.0938 23.4062ZM45.2168 43.2168C45.5157 42.9179 45.9211 42.75 46.3438 42.75C46.7664 42.75 47.1718 42.9179 47.4707 43.2168C47.7696 43.5157 47.9375 43.9211 47.9375 44.3438V48.5312C47.9375 48.9539 47.7696 49.3593 47.4707 49.6582C47.1718 49.9571 46.7664 50.125 46.3438 50.125C45.9211 50.125 45.5157 49.9571 45.2168 49.6582C44.9179 49.3593 44.75 48.9539 44.75 48.5312V44.3438C44.75 43.9211 44.9179 43.5157 45.2168 43.2168ZM7.5293 34.8418C7.82818 34.5429 8.23356 34.375 8.65625 34.375C9.07894 34.375 9.48432 34.5429 9.7832 34.8418C10.0821 35.1407 10.25 35.5461 10.25 35.9688V48.5312C10.25 48.9539 10.0821 49.3593 9.7832 49.6582C9.48432 49.9571 9.07894 50.125 8.65625 50.125C8.23356 50.125 7.82818 49.9571 7.5293 49.6582C7.23041 49.3593 7.0625 48.9539 7.0625 48.5312V35.9688C7.0625 35.5461 7.23041 35.1407 7.5293 34.8418Z" fill="#112F38" stroke="black"></path>
  </symbol>
  <symbol fill="none" xmlns="http://www.w3.org/2000/svg" viewBox="0 0 51 53" id="vector (2)">
    <path d="M46.4375 0.46875H4.5625C3.45191 0.46875 2.3868 0.909932 1.60149 1.69524C0.816182 2.48055 0.375 3.54566 0.375 4.65625V20.0401C0.375 43.4927 20.2185 51.2736 24.1914 52.5953C25.0399 52.8838 25.9601 52.8838 26.8086 52.5953C30.7867 51.2736 50.625 43.4927 50.625 20.0401V4.65625C50.625 3.54566 50.1838 2.48055 49.3985 1.69524C48.6132 0.909932 47.5481 0.46875 46.4375 0.46875ZM46.4375 20.0427C46.4375 40.5667 29.0725 47.4237 25.5 48.6171C21.9589 47.4368 4.5625 40.585 4.5625 20.0427V4.65625H46.4375V20.0427ZM13.5499 27.0751C13.157 26.6822 12.9363 26.1494 12.9363 25.5937C12.9363 25.0381 13.157 24.5053 13.5499 24.1124C13.9428 23.7195 14.4756 23.4988 15.0312 23.4988C15.5869 23.4988 16.1197 23.7195 16.5126 24.1124L21.3125 28.9123L34.4874 15.7374C34.6819 15.5429 34.9129 15.3886 35.1671 15.2833C35.4212 15.178 35.6936 15.1238 35.9688 15.1238C36.2439 15.1238 36.5163 15.178 36.7704 15.2833C37.0246 15.3886 37.2556 15.5429 37.4501 15.7374C37.6446 15.932 37.7989 16.1629 37.9042 16.4171C38.0095 16.6712 38.0637 16.9436 38.0637 17.2187C38.0637 17.4939 38.0095 17.7663 37.9042 18.0204C37.7989 18.2746 37.6446 18.5055 37.4501 18.7001L22.7938 33.3563C22.5994 33.551 22.3685 33.7054 22.1143 33.8108C21.8601 33.9162 21.5877 33.9704 21.3125 33.9704C21.0373 33.9704 20.7649 33.9162 20.5107 33.8108C20.2565 33.7054 20.0256 33.551 19.8312 33.3563L13.5499 27.0751Z" fill="#112F38"></path>
  </symbol>
  <symbol fill="none" xmlns="http://www.w3.org/2000/svg" viewBox="0 0 59 59" id="vector (3)">
    <path d="M57.6557 29.7198L37.875 19.8321V8.5625C37.875 6.34131 36.9926 4.2111 35.422 2.64048C33.8514 1.06986 31.7212 0.1875 29.5 0.1875C27.2788 0.1875 25.1486 1.06986 23.578 2.64048C22.0074 4.2111 21.125 6.34131 21.125 8.5625V19.8321L1.3443 29.7198C0.996443 29.8939 0.703955 30.1614 0.49963 30.4924C0.295305 30.8234 0.187222 31.2048 0.187501 31.5938V39.9688C0.187672 40.2785 0.256547 40.5843 0.38916 40.8641C0.521773 41.144 0.714822 41.391 0.954395 41.5872C1.19397 41.7835 1.4741 41.9242 1.77459 41.9991C2.07509 42.0741 2.38847 42.0814 2.69215 42.0206L21.125 38.3356V43.29L17.5499 46.8624C17.3555 47.057 17.2014 47.288 17.0963 47.5422C16.9913 47.7963 16.9373 48.0687 16.9375 48.3438V56.7188C16.9369 57.0619 17.0207 57.3999 17.1814 57.7031C17.3422 58.0063 17.5749 58.2653 17.8593 58.4574C18.1437 58.6495 18.4709 58.7687 18.8122 58.8046C19.1534 58.8405 19.4983 58.792 19.8164 58.6633L29.5 54.7873L39.1836 58.6633C39.5017 58.792 39.8466 58.8405 40.1878 58.8046C40.5291 58.7687 40.8563 58.6495 41.1407 58.4574C41.4251 58.2653 41.6579 58.0063 41.8186 57.7031C41.9793 57.3999 42.0631 57.0619 42.0625 56.7188V48.3438C42.0627 48.0687 42.0087 47.7963 41.9037 47.5422C41.7986 47.288 41.6445 47.057 41.4501 46.8624L37.875 43.29V38.3356L56.3078 42.0206C56.6115 42.0814 56.9249 42.0741 57.2254 41.9991C57.5259 41.9242 57.806 41.7835 58.0456 41.5872C58.2852 41.391 58.4782 41.144 58.6108 40.8641C58.7435 40.5843 58.8123 40.2785 58.8125 39.9688V31.5938C58.8128 31.2048 58.7047 30.8234 58.5004 30.4924C58.296 30.1614 58.0036 29.8939 57.6557 29.7198ZM54.625 37.4144L36.1922 33.7294C35.8885 33.6686 35.5751 33.6759 35.2746 33.7509C34.9741 33.8258 34.694 33.9665 34.4544 34.1628C34.2148 34.359 34.0218 34.606 33.8892 34.8859C33.7565 35.1657 33.6877 35.4715 33.6875 35.7812V44.1562C33.6873 44.4313 33.7413 44.7037 33.8463 44.9578C33.9514 45.212 34.1055 45.443 34.2999 45.6376L37.875 49.21V53.6252L30.2852 50.5867C29.7862 50.3872 29.2295 50.3872 28.7305 50.5867L21.125 53.6252V49.21L24.7001 45.6376C24.8945 45.443 25.0486 45.212 25.1537 44.9578C25.2587 44.7037 25.3127 44.4313 25.3125 44.1562V35.7812C25.3123 35.4715 25.2435 35.1657 25.1108 34.8859C24.9782 34.606 24.7852 34.359 24.5456 34.1628C24.306 33.9665 24.0259 33.8258 23.7254 33.7509C23.4249 33.6759 23.1115 33.6686 22.8079 33.7294L4.375 37.4144V32.8866L24.1557 22.9989C24.5036 22.8248 24.796 22.5573 25.0004 22.2263C25.2047 21.8953 25.3128 21.514 25.3125 21.125V8.5625C25.3125 7.45191 25.7537 6.3868 26.539 5.60149C27.3243 4.81618 28.3894 4.375 29.5 4.375C30.6106 4.375 31.6757 4.81618 32.461 5.60149C33.2463 6.3868 33.6875 7.45191 33.6875 8.5625V21.125C33.6872 21.514 33.7953 21.8953 33.9996 22.2263C34.204 22.5573 34.4964 22.8248 34.8443 22.9989L54.625 32.8866V37.4144Z" fill="#112F38"></path>
  </symbol>
  <symbol fill="none" xmlns="http://www.w3.org/2000/svg" viewBox="0 0 41 31" id="vector5 (1)">
    <path d="M33.9375 6.09375H3.03125V2.0625C3.03125 1.70612 2.88968 1.36433 2.63767 1.11233C2.38567 0.860324 2.04388 0.71875 1.6875 0.71875C1.33112 0.71875 0.989327 0.860324 0.737325 1.11233C0.485323 1.36433 0.34375 1.70612 0.34375 2.0625V28.9375C0.34375 29.2939 0.485323 29.6357 0.737325 29.8877C0.989327 30.1397 1.33112 30.2812 1.6875 30.2812C2.04388 30.2812 2.38567 30.1397 2.63767 29.8877C2.88968 29.6357 3.03125 29.2939 3.03125 28.9375V23.5625H37.9688V28.9375C37.9688 29.2939 38.1103 29.6357 38.3623 29.8877C38.6143 30.1397 38.9561 30.2812 39.3125 30.2812C39.6689 30.2812 40.0107 30.1397 40.2627 29.8877C40.5147 29.6357 40.6562 29.2939 40.6562 28.9375V12.8125C40.6562 11.0306 39.9484 9.32164 38.6884 8.06163C37.4284 6.80162 35.7194 6.09375 33.9375 6.09375ZM3.03125 8.78125H15.125V20.875H3.03125V8.78125ZM17.8125 20.875V8.78125H33.9375C35.0067 8.78125 36.032 9.20597 36.788 9.96198C37.544 10.718 37.9687 11.7433 37.9688 12.8125V20.875H17.8125Z" fill="#0E3D4D"></path>
  </symbol>
  <symbol fill="none" xmlns="http://www.w3.org/2000/svg" viewBox="0 0 41 34" id="vector5 (2)">
    <path d="M39.3125 14.8125H37.4044L32.8037 6.76008C32.5686 6.34882 32.229 6.007 31.8193 5.76925C31.4096 5.53151 30.9443 5.40628 30.4706 5.40625H10.5294C10.0557 5.40628 9.5904 5.53151 9.18068 5.76925C8.77096 6.007 8.43136 6.34882 8.19629 6.76008L3.59563 14.8125H1.6875C1.33112 14.8125 0.989327 14.9541 0.737325 15.2061C0.485323 15.4581 0.34375 15.7999 0.34375 16.1562C0.34375 16.5126 0.485323 16.8544 0.737325 17.1064C0.989327 17.3584 1.33112 17.5 1.6875 17.5H3.03125V30.9375C3.03125 31.6503 3.3144 32.3338 3.8184 32.8378C4.3224 33.3419 5.00598 33.625 5.71875 33.625H9.75C10.4628 33.625 11.1463 33.3419 11.6503 32.8378C12.1544 32.3338 12.4375 31.6503 12.4375 30.9375V28.25H28.5625V30.9375C28.5625 31.6503 28.8456 32.3338 29.3497 32.8378C29.8537 33.3419 30.5372 33.625 31.25 33.625H35.2812C35.994 33.625 36.6776 33.3419 37.1816 32.8378C37.6856 32.3338 37.9688 31.6503 37.9688 30.9375V17.5H39.3125C39.6689 17.5 40.0107 17.3584 40.2627 17.1064C40.5147 16.8544 40.6562 16.5126 40.6562 16.1562C40.6562 15.7999 40.5147 15.4581 40.2627 15.2061C40.0107 14.9541 39.6689 14.8125 39.3125 14.8125ZM10.5294 8.09375H30.4706L34.3087 14.8125H6.69129L10.5294 8.09375ZM9.75 30.9375H5.71875V28.25H9.75V30.9375ZM31.25 30.9375V28.25H35.2812V30.9375H31.25ZM35.2812 25.5625H5.71875V17.5H35.2812V25.5625ZM8.40625 21.5312C8.40625 21.1749 8.54782 20.8331 8.79983 20.5811C9.05183 20.3291 9.39362 20.1875 9.75 20.1875H12.4375C12.7939 20.1875 13.1357 20.3291 13.3877 20.5811C13.6397 20.8331 13.7812 21.1749 13.7812 21.5312C13.7812 21.8876 13.6397 22.2294 13.3877 22.4814C13.1357 22.7334 12.7939 22.875 12.4375 22.875H9.75C9.39362 22.875 9.05183 22.7334 8.79983 22.4814C8.54782 22.2294 8.40625 21.8876 8.40625 21.5312ZM27.2188 21.5312C27.2188 21.1749 27.3603 20.8331 27.6123 20.5811C27.8643 20.3291 28.2061 20.1875 28.5625 20.1875H31.25C31.6064 20.1875 31.9482 20.3291 32.2002 20.5811C32.4522 20.8331 32.5938 21.1749 32.5938 21.5312C32.5938 21.8876 32.4522 22.2294 32.2002 22.4814C31.9482 22.7334 31.6064 22.875 31.25 22.875H28.5625C28.2061 22.875 27.8643 22.7334 27.6123 22.4814C27.3603 22.2294 27.2188 21.8876 27.2188 21.5312ZM15.125 1.375C15.125 1.01862 15.2666 0.676827 15.5186 0.424825C15.7706 0.172823 16.1124 0.03125 16.4688 0.03125H24.5312C24.8876 0.03125 25.2294 0.172823 25.4814 0.424825C25.7334 0.676827 25.875 1.01862 25.875 1.375C25.875 1.73138 25.7334 2.07317 25.4814 2.32517C25.2294 2.57718 24.8876 2.71875 24.5312 2.71875H16.4688C16.1124 2.71875 15.7706 2.57718 15.5186 2.32517C15.2666 2.07317 15.125 1.73138 15.125 1.375Z" fill="#0E3D4D"></path>
  </symbol>
</svg>