<svg width="156" height="45" viewBox="0 0 156 45" fill="none" xmlns="http://www.w3.org/2000/svg">
<path d="M3.37607 24.6931V6.5113H10.8867C12.248 6.5113 13.4228 6.77763 14.4112 7.3103C15.4055 7.83705 16.172 8.57391 16.7106 9.52088C17.2492 10.4619 17.5185 11.5569 17.5185 12.8057C17.5185 14.0604 17.2433 15.1583 16.6928 16.0994C16.1483 17.0345 15.37 17.7595 14.358 18.2744C13.3459 18.7894 12.1444 19.0468 10.7536 19.0468H6.11932V15.5845H9.93679C10.5997 15.5845 11.1531 15.469 11.5969 15.2382C12.0468 15.0074 12.3871 14.6848 12.6179 14.2705C12.8487 13.8503 12.9641 13.362 12.9641 12.8057C12.9641 12.2434 12.8487 11.7581 12.6179 11.3497C12.3871 10.9354 12.0468 10.6158 11.5969 10.3909C11.1471 10.166 10.5938 10.0536 9.93679 10.0536H7.7706V24.6931H3.37607ZM19.6847 24.6931V11.0568H23.9016V13.5425H24.0437C24.2923 12.6429 24.6977 11.9741 25.2599 11.5362C25.8222 11.0923 26.4762 10.8703 27.2219 10.8703C27.4232 10.8703 27.6303 10.8851 27.8434 10.9147C28.0565 10.9384 28.2547 10.9769 28.4382 11.0301V14.8032C28.2311 14.7322 27.9588 14.676 27.6214 14.6345C27.29 14.5931 26.9941 14.5724 26.7337 14.5724C26.2188 14.5724 25.7541 14.6878 25.3398 14.9186C24.9315 15.1435 24.6089 15.4602 24.3722 15.8685C24.1413 16.271 24.0259 16.7445 24.0259 17.289V24.6931H19.6847ZM33.2766 29.8068C32.7558 29.8068 32.2646 29.7653 31.8029 29.6825C31.3413 29.6055 30.9447 29.5019 30.6133 29.3717L31.5721 26.2201C31.9982 26.3621 32.3829 26.445 32.7262 26.4687C33.0754 26.4924 33.3743 26.4361 33.6229 26.3C33.8774 26.1698 34.0727 25.936 34.2088 25.5987L34.3775 25.1903L29.5302 11.0568H34.0756L36.5881 20.7869H36.7301L39.2781 11.0568H43.8501L38.7099 25.9982C38.4613 26.7439 38.1091 27.4009 37.6534 27.969C37.2036 28.5431 36.6206 28.9929 35.9045 29.3185C35.1942 29.644 34.3183 29.8068 33.2766 29.8068ZM50.0558 24.8884C49.0496 24.8884 48.1352 24.628 47.3125 24.1072C46.4898 23.5863 45.8329 22.8051 45.3416 21.7634C44.8504 20.7218 44.6048 19.4286 44.6048 17.8838C44.6048 16.2799 44.8593 14.96 45.3683 13.9243C45.8772 12.8885 46.5431 12.1221 47.3658 11.6249C48.1944 11.1278 49.0851 10.8792 50.038 10.8792C50.7541 10.8792 51.3667 11.0035 51.8757 11.2521C52.3847 11.4947 52.8049 11.8084 53.1364 12.1931C53.4678 12.5778 53.7193 12.9773 53.891 13.3916H53.9798V6.5113H58.321V24.6931H54.0241V22.4825H53.891C53.7075 22.9028 53.4471 23.2963 53.1097 23.6633C52.7724 24.0302 52.3492 24.3262 51.8402 24.5511C51.3371 24.776 50.7423 24.8884 50.0558 24.8884ZM51.565 21.506C52.0917 21.506 52.5415 21.358 52.9144 21.0621C53.2873 20.7602 53.5743 20.3371 53.7756 19.7925C53.9768 19.248 54.0774 18.6088 54.0774 17.8749C54.0774 17.1292 53.9768 16.487 53.7756 15.9484C53.5803 15.4099 53.2932 14.9956 52.9144 14.7055C52.5415 14.4155 52.0917 14.2705 51.565 14.2705C51.0264 14.2705 50.5707 14.4185 50.1978 14.7144C49.8249 15.0103 49.5408 15.4276 49.3455 15.9662C49.1561 16.5048 49.0614 17.141 49.0614 17.8749C49.0614 18.6088 49.1591 19.248 49.3544 19.7925C49.5497 20.3371 49.8308 20.7602 50.1978 21.0621C50.5707 21.358 51.0264 21.506 51.565 21.506ZM67.4408 24.9506C66.0144 24.9506 64.7834 24.6694 63.7476 24.1072C62.7178 23.539 61.9247 22.7311 61.3683 21.6835C60.8179 20.63 60.5427 19.3782 60.5427 17.9282C60.5427 16.5196 60.8209 15.2885 61.3772 14.235C61.9336 13.1756 62.7178 12.3529 63.7298 11.767C64.7419 11.1751 65.9345 10.8792 67.3076 10.8792C68.2783 10.8792 69.166 11.0301 69.971 11.332C70.7759 11.6338 71.4713 12.0807 72.0573 12.6725C72.6432 13.2644 73.0989 13.9953 73.4244 14.8653C73.75 15.7295 73.9127 16.7208 73.9127 17.8394V18.9225H62.0608V16.4012H69.8733C69.8674 15.9396 69.7579 15.5282 69.5448 15.1672C69.3318 14.8062 69.0388 14.525 68.6659 14.3238C68.299 14.1166 67.8758 14.0131 67.3964 14.0131C66.9111 14.0131 66.4761 14.1226 66.0914 14.3416C65.7066 14.5546 65.4018 14.8476 65.1769 15.2205C64.952 15.5874 64.8337 16.0047 64.8218 16.4722V19.0379C64.8218 19.5943 64.9313 20.0826 65.1503 20.5028C65.3693 20.9171 65.68 21.2396 66.0825 21.4705C66.4849 21.7013 66.9643 21.8167 67.5207 21.8167C67.9054 21.8167 68.2546 21.7634 68.5683 21.6569C68.882 21.5504 69.1512 21.3935 69.3762 21.1864C69.6011 20.9792 69.7697 20.7247 69.8822 20.4229L73.8683 20.5383C73.7026 21.432 73.3386 22.2103 72.7764 22.8732C72.22 23.5301 71.4891 24.0421 70.5835 24.409C69.678 24.7701 68.6304 24.9506 67.4408 24.9506ZM75.7482 9.27231V6.5113H90.2546V9.27231H84.6349V24.6931H81.3679V9.27231H75.7482ZM91.4931 24.6931V11.0568H94.6092V13.3295H94.7512C94.9998 12.5423 95.426 11.9357 96.0297 11.5095C96.6393 11.0775 97.3347 10.8614 98.1159 10.8614C98.2935 10.8614 98.4918 10.8703 98.7108 10.8881C98.9357 10.8999 99.1221 10.9206 99.2701 10.9502V13.9065C99.1339 13.8592 98.9179 13.8178 98.622 13.7822C98.332 13.7408 98.0508 13.7201 97.7786 13.7201C97.1926 13.7201 96.6659 13.8474 96.1983 14.1019C95.7367 14.3504 95.3727 14.6967 95.1064 15.1406C94.84 15.5845 94.7069 16.0964 94.7069 16.6764V24.6931H91.4931ZM105.085 24.9683C104.221 24.9683 103.443 24.8144 102.75 24.5067C102.064 24.193 101.519 23.7313 101.117 23.1217C100.72 22.5121 100.522 21.7605 100.522 20.8668C100.522 20.0974 100.664 19.4611 100.948 18.958C101.232 18.455 101.62 18.0525 102.111 17.7506C102.602 17.4488 103.156 17.2209 103.771 17.067C104.393 16.9072 105.035 16.7918 105.698 16.7208C106.497 16.638 107.145 16.564 107.642 16.4989C108.139 16.4278 108.5 16.3213 108.725 16.1793C108.956 16.0313 109.071 15.8034 109.071 15.4957V15.4424C109.071 14.7736 108.873 14.2557 108.476 13.8888C108.08 13.5218 107.509 13.3384 106.763 13.3384C105.976 13.3384 105.351 13.51 104.89 13.8533C104.434 14.1965 104.126 14.602 103.966 15.0695L100.966 14.6434C101.202 13.8148 101.593 13.1223 102.138 12.566C102.682 12.0037 103.348 11.5835 104.135 11.3053C104.922 11.0212 105.792 10.8792 106.745 10.8792C107.402 10.8792 108.056 10.9561 108.707 11.11C109.358 11.2639 109.953 11.5184 110.492 11.8735C111.03 12.2227 111.462 12.6992 111.788 13.3028C112.119 13.9065 112.285 14.6612 112.285 15.5667V24.6931H109.195V22.8199H109.089C108.894 23.1987 108.618 23.5538 108.263 23.8852C107.914 24.2108 107.473 24.4741 106.941 24.6754C106.414 24.8707 105.795 24.9683 105.085 24.9683ZM105.92 22.6068C106.565 22.6068 107.124 22.4796 107.597 22.2251C108.071 21.9647 108.435 21.6214 108.689 21.1952C108.95 20.7691 109.08 20.3045 109.08 19.8014V18.1945C108.979 18.2774 108.808 18.3543 108.565 18.4254C108.328 18.4964 108.062 18.5585 107.766 18.6118C107.47 18.6651 107.177 18.7124 106.887 18.7538C106.597 18.7953 106.346 18.8308 106.133 18.8604C105.653 18.9255 105.224 19.032 104.845 19.18C104.467 19.3279 104.168 19.5351 103.949 19.8014C103.73 20.0618 103.62 20.3992 103.62 20.8135C103.62 21.4054 103.836 21.8522 104.268 22.1541C104.7 22.4559 105.251 22.6068 105.92 22.6068ZM127.209 11.0568L122.352 24.6931H118.801L113.945 11.0568H117.372L120.506 21.1864H120.648L123.791 11.0568H127.209ZM135.006 24.9595C133.638 24.9595 132.458 24.6754 131.463 24.1072C130.475 23.5331 129.714 22.7222 129.182 21.6746C128.649 20.6211 128.383 19.3812 128.383 17.9548C128.383 16.5521 128.649 15.3211 129.182 14.2617C129.72 13.1963 130.472 12.3677 131.437 11.7759C132.401 11.1781 133.535 10.8792 134.837 10.8792C135.677 10.8792 136.47 11.0153 137.216 11.2876C137.968 11.5539 138.631 11.9682 139.205 12.5305C139.785 13.0927 140.241 13.8089 140.572 14.6789C140.903 15.543 141.069 16.5728 141.069 17.7684V18.7538H129.892V16.5876H137.989C137.983 15.9721 137.849 15.4246 137.589 14.9452C137.329 14.4599 136.965 14.0782 136.497 13.8C136.035 13.5218 135.497 13.3827 134.881 13.3827C134.224 13.3827 133.647 13.5425 133.15 13.8621C132.653 14.1758 132.265 14.5901 131.987 15.105C131.715 15.614 131.576 16.1733 131.57 16.783V18.6739C131.57 19.467 131.715 20.1477 132.005 20.7158C132.295 21.2781 132.7 21.7102 133.221 22.012C133.742 22.3079 134.352 22.4559 135.05 22.4559C135.518 22.4559 135.941 22.3908 136.32 22.2606C136.698 22.1245 137.027 21.9262 137.305 21.6658C137.583 21.4054 137.793 21.0828 137.935 20.6981L140.936 21.0354C140.747 21.8285 140.386 22.521 139.853 23.1129C139.326 23.6988 138.651 24.1545 137.829 24.48C137.006 24.7996 136.065 24.9595 135.006 24.9595ZM147.002 6.5113V24.6931H143.788V6.5113H147.002ZM152.286 24.8884C151.748 24.8884 151.286 24.699 150.901 24.3202C150.517 23.9415 150.327 23.4798 150.333 22.9353C150.327 22.4026 150.517 21.9469 150.901 21.5681C151.286 21.1893 151.748 20.9999 152.286 20.9999C152.807 20.9999 153.26 21.1893 153.645 21.5681C154.035 21.9469 154.234 22.4026 154.239 22.9353C154.234 23.2963 154.139 23.6248 153.955 23.9207C153.778 24.2167 153.541 24.4534 153.245 24.631C152.955 24.8026 152.636 24.8884 152.286 24.8884Z" fill="#112F38"/>
<path d="M2 33.6931C15.6667 40.1931 49.8 49.2931 77 33.6931" stroke="#CCF32F" stroke-width="4" stroke-linecap="round"/>
</svg>
