<svg width="59" height="59" viewBox="0 0 59 59" fill="none" xmlns="http://www.w3.org/2000/svg">
<path d="M57.6557 29.7198L37.875 19.8321V8.5625C37.875 6.34131 36.9926 4.2111 35.422 2.64048C33.8514 1.06986 31.7212 0.1875 29.5 0.1875C27.2788 0.1875 25.1486 1.06986 23.578 2.64048C22.0074 4.2111 21.125 6.34131 21.125 8.5625V19.8321L1.3443 29.7198C0.996443 29.8939 0.703955 30.1614 0.49963 30.4924C0.295305 30.8234 0.187222 31.2048 0.187501 31.5938V39.9688C0.187672 40.2785 0.256547 40.5843 0.38916 40.8641C0.521773 41.144 0.714822 41.391 0.954395 41.5872C1.19397 41.7835 1.4741 41.9242 1.77459 41.9991C2.07509 42.0741 2.38847 42.0814 2.69215 42.0206L21.125 38.3356V43.29L17.5499 46.8624C17.3555 47.057 17.2014 47.288 17.0963 47.5422C16.9913 47.7963 16.9373 48.0687 16.9375 48.3438V56.7188C16.9369 57.0619 17.0207 57.3999 17.1814 57.7031C17.3422 58.0063 17.5749 58.2653 17.8593 58.4574C18.1437 58.6495 18.4709 58.7687 18.8122 58.8046C19.1534 58.8405 19.4983 58.792 19.8164 58.6633L29.5 54.7873L39.1836 58.6633C39.5017 58.792 39.8466 58.8405 40.1878 58.8046C40.5291 58.7687 40.8563 58.6495 41.1407 58.4574C41.4251 58.2653 41.6579 58.0063 41.8186 57.7031C41.9793 57.3999 42.0631 57.0619 42.0625 56.7188V48.3438C42.0627 48.0687 42.0087 47.7963 41.9037 47.5422C41.7986 47.288 41.6445 47.057 41.4501 46.8624L37.875 43.29V38.3356L56.3078 42.0206C56.6115 42.0814 56.9249 42.0741 57.2254 41.9991C57.5259 41.9242 57.806 41.7835 58.0456 41.5872C58.2852 41.391 58.4782 41.144 58.6108 40.8641C58.7435 40.5843 58.8123 40.2785 58.8125 39.9688V31.5938C58.8128 31.2048 58.7047 30.8234 58.5004 30.4924C58.296 30.1614 58.0036 29.8939 57.6557 29.7198ZM54.625 37.4144L36.1922 33.7294C35.8885 33.6686 35.5751 33.6759 35.2746 33.7509C34.9741 33.8258 34.694 33.9665 34.4544 34.1628C34.2148 34.359 34.0218 34.606 33.8892 34.8859C33.7565 35.1657 33.6877 35.4715 33.6875 35.7812V44.1562C33.6873 44.4313 33.7413 44.7037 33.8463 44.9578C33.9514 45.212 34.1055 45.443 34.2999 45.6376L37.875 49.21V53.6252L30.2852 50.5867C29.7862 50.3872 29.2295 50.3872 28.7305 50.5867L21.125 53.6252V49.21L24.7001 45.6376C24.8945 45.443 25.0486 45.212 25.1537 44.9578C25.2587 44.7037 25.3127 44.4313 25.3125 44.1562V35.7812C25.3123 35.4715 25.2435 35.1657 25.1108 34.8859C24.9782 34.606 24.7852 34.359 24.5456 34.1628C24.306 33.9665 24.0259 33.8258 23.7254 33.7509C23.4249 33.6759 23.1115 33.6686 22.8079 33.7294L4.375 37.4144V32.8866L24.1557 22.9989C24.5036 22.8248 24.796 22.5573 25.0004 22.2263C25.2047 21.8953 25.3128 21.514 25.3125 21.125V8.5625C25.3125 7.45191 25.7537 6.3868 26.539 5.60149C27.3243 4.81618 28.3894 4.375 29.5 4.375C30.6106 4.375 31.6757 4.81618 32.461 5.60149C33.2463 6.3868 33.6875 7.45191 33.6875 8.5625V21.125C33.6872 21.514 33.7953 21.8953 33.9996 22.2263C34.204 22.5573 34.4964 22.8248 34.8443 22.9989L54.625 32.8866V37.4144Z" fill="#112F38"/>
</svg>
