<svg width="55" height="51" viewBox="0 0 55 51" fill="none" xmlns="http://www.w3.org/2000/svg">
<path d="M47.9375 33.875V34.375H48.4375H52.625C53.0477 34.375 53.4531 34.5429 53.752 34.8418C54.0508 35.1407 54.2188 35.5461 54.2188 35.9688C54.2188 36.3914 54.0508 36.7968 53.752 37.0957C53.4531 37.3946 53.0477 37.5625 52.625 37.5625H40.0625C39.6398 37.5625 39.2344 37.3946 38.9355 37.0957C38.6367 36.7968 38.4688 36.3914 38.4688 35.9688C38.4688 35.5461 38.6367 35.1407 38.9355 34.8418C39.2344 34.5429 39.6398 34.375 40.0625 34.375H44.25H44.75V33.875V2.46875C44.75 2.04606 44.9179 1.64068 45.2168 1.3418C45.5157 1.04291 45.9211 0.875 46.3438 0.875C46.7664 0.875 47.1718 1.04291 47.4707 1.3418C47.7696 1.64068 47.9375 2.04606 47.9375 2.46875V33.875ZM10.25 25.5V26H10.75H14.9375C15.3602 26 15.7656 26.1679 16.0645 26.4668C16.3633 26.7657 16.5312 27.1711 16.5312 27.5938C16.5312 28.0164 16.3633 28.4218 16.0645 28.7207C15.7656 29.0196 15.3602 29.1875 14.9375 29.1875H2.375C1.95231 29.1875 1.54693 29.0196 1.24805 28.7207C0.949163 28.4218 0.78125 28.0164 0.78125 27.5938C0.78125 27.1711 0.949163 26.7657 1.24805 26.4668C1.54693 26.1679 1.95231 26 2.375 26H6.5625H7.0625V25.5V2.46875C7.0625 2.04606 7.23041 1.64069 7.5293 1.3418C7.82819 1.04291 8.23356 0.875 8.65625 0.875C9.07894 0.875 9.48431 1.04291 9.7832 1.3418C10.0821 1.64069 10.25 2.04606 10.25 2.46875V25.5ZM29.0938 12.9375V13.4375H29.5938H33.7812C34.2039 13.4375 34.6093 13.6054 34.9082 13.9043C35.2071 14.2032 35.375 14.6086 35.375 15.0312C35.375 15.4539 35.2071 15.8593 34.9082 16.1582C34.6093 16.4571 34.2039 16.625 33.7812 16.625H21.2188C20.7961 16.625 20.3907 16.4571 20.0918 16.1582C19.7929 15.8593 19.625 15.4539 19.625 15.0312C19.625 14.6086 19.7929 14.2032 20.0918 13.9043C20.3907 13.6054 20.7961 13.4375 21.2188 13.4375H25.4062H25.9062V12.9375V2.46875C25.9062 2.04606 26.0742 1.64069 26.373 1.3418C26.6719 1.04291 27.0773 0.875 27.5 0.875C27.9227 0.875 28.3281 1.04291 28.627 1.3418C28.9258 1.64068 29.0938 2.04606 29.0938 2.46875V12.9375ZM29.0938 23.4062V48.5312C29.0938 48.9539 28.9258 49.3593 28.627 49.6582C28.3281 49.9571 27.9227 50.125 27.5 50.125C27.0773 50.125 26.6719 49.9571 26.373 49.6582C26.0742 49.3593 25.9062 48.9539 25.9062 48.5312V23.4062C25.9062 22.9836 26.0742 22.5782 26.373 22.2793C26.6719 21.9804 27.0773 21.8125 27.5 21.8125C27.9227 21.8125 28.3281 21.9804 28.627 22.2793C28.9258 22.5782 29.0938 22.9836 29.0938 23.4062ZM45.2168 43.2168C45.5157 42.9179 45.9211 42.75 46.3438 42.75C46.7664 42.75 47.1718 42.9179 47.4707 43.2168C47.7696 43.5157 47.9375 43.9211 47.9375 44.3438V48.5312C47.9375 48.9539 47.7696 49.3593 47.4707 49.6582C47.1718 49.9571 46.7664 50.125 46.3438 50.125C45.9211 50.125 45.5157 49.9571 45.2168 49.6582C44.9179 49.3593 44.75 48.9539 44.75 48.5312V44.3438C44.75 43.9211 44.9179 43.5157 45.2168 43.2168ZM7.5293 34.8418C7.82818 34.5429 8.23356 34.375 8.65625 34.375C9.07894 34.375 9.48432 34.5429 9.7832 34.8418C10.0821 35.1407 10.25 35.5461 10.25 35.9688V48.5312C10.25 48.9539 10.0821 49.3593 9.7832 49.6582C9.48432 49.9571 9.07894 50.125 8.65625 50.125C8.23356 50.125 7.82818 49.9571 7.5293 49.6582C7.23041 49.3593 7.0625 48.9539 7.0625 48.5312V35.9688C7.0625 35.5461 7.23041 35.1407 7.5293 34.8418Z" fill="#112F38" stroke="black"/>
</svg>
