<svg width="41" height="34" viewBox="0 0 41 34" fill="none" xmlns="http://www.w3.org/2000/svg">
<path d="M39.3125 14.8125H37.4044L32.8037 6.76008C32.5686 6.34882 32.229 6.007 31.8193 5.76925C31.4096 5.53151 30.9443 5.40628 30.4706 5.40625H10.5294C10.0557 5.40628 9.5904 5.53151 9.18068 5.76925C8.77096 6.007 8.43136 6.34882 8.19629 6.76008L3.59563 14.8125H1.6875C1.33112 14.8125 0.989327 14.9541 0.737325 15.2061C0.485323 15.4581 0.34375 15.7999 0.34375 16.1562C0.34375 16.5126 0.485323 16.8544 0.737325 17.1064C0.989327 17.3584 1.33112 17.5 1.6875 17.5H3.03125V30.9375C3.03125 31.6503 3.3144 32.3338 3.8184 32.8378C4.3224 33.3419 5.00598 33.625 5.71875 33.625H9.75C10.4628 33.625 11.1463 33.3419 11.6503 32.8378C12.1544 32.3338 12.4375 31.6503 12.4375 30.9375V28.25H28.5625V30.9375C28.5625 31.6503 28.8456 32.3338 29.3497 32.8378C29.8537 33.3419 30.5372 33.625 31.25 33.625H35.2812C35.994 33.625 36.6776 33.3419 37.1816 32.8378C37.6856 32.3338 37.9688 31.6503 37.9688 30.9375V17.5H39.3125C39.6689 17.5 40.0107 17.3584 40.2627 17.1064C40.5147 16.8544 40.6562 16.5126 40.6562 16.1562C40.6562 15.7999 40.5147 15.4581 40.2627 15.2061C40.0107 14.9541 39.6689 14.8125 39.3125 14.8125ZM10.5294 8.09375H30.4706L34.3087 14.8125H6.69129L10.5294 8.09375ZM9.75 30.9375H5.71875V28.25H9.75V30.9375ZM31.25 30.9375V28.25H35.2812V30.9375H31.25ZM35.2812 25.5625H5.71875V17.5H35.2812V25.5625ZM8.40625 21.5312C8.40625 21.1749 8.54782 20.8331 8.79983 20.5811C9.05183 20.3291 9.39362 20.1875 9.75 20.1875H12.4375C12.7939 20.1875 13.1357 20.3291 13.3877 20.5811C13.6397 20.8331 13.7812 21.1749 13.7812 21.5312C13.7812 21.8876 13.6397 22.2294 13.3877 22.4814C13.1357 22.7334 12.7939 22.875 12.4375 22.875H9.75C9.39362 22.875 9.05183 22.7334 8.79983 22.4814C8.54782 22.2294 8.40625 21.8876 8.40625 21.5312ZM27.2188 21.5312C27.2188 21.1749 27.3603 20.8331 27.6123 20.5811C27.8643 20.3291 28.2061 20.1875 28.5625 20.1875H31.25C31.6064 20.1875 31.9482 20.3291 32.2002 20.5811C32.4522 20.8331 32.5938 21.1749 32.5938 21.5312C32.5938 21.8876 32.4522 22.2294 32.2002 22.4814C31.9482 22.7334 31.6064 22.875 31.25 22.875H28.5625C28.2061 22.875 27.8643 22.7334 27.6123 22.4814C27.3603 22.2294 27.2188 21.8876 27.2188 21.5312ZM15.125 1.375C15.125 1.01862 15.2666 0.676827 15.5186 0.424825C15.7706 0.172823 16.1124 0.03125 16.4688 0.03125H24.5312C24.8876 0.03125 25.2294 0.172823 25.4814 0.424825C25.7334 0.676827 25.875 1.01862 25.875 1.375C25.875 1.73138 25.7334 2.07317 25.4814 2.32517C25.2294 2.57718 24.8876 2.71875 24.5312 2.71875H16.4688C16.1124 2.71875 15.7706 2.57718 15.5186 2.32517C15.2666 2.07317 15.125 1.73138 15.125 1.375Z" fill="#0E3D4D"/>
</svg>
