<svg width="41" height="31" viewBox="0 0 41 31" fill="none" xmlns="http://www.w3.org/2000/svg">
<path d="M33.9375 6.09375H3.03125V2.0625C3.03125 1.70612 2.88968 1.36433 2.63767 1.11233C2.38567 0.860324 2.04388 0.71875 1.6875 0.71875C1.33112 0.71875 0.989327 0.860324 0.737325 1.11233C0.485323 1.36433 0.34375 1.70612 0.34375 2.0625V28.9375C0.34375 29.2939 0.485323 29.6357 0.737325 29.8877C0.989327 30.1397 1.33112 30.2812 1.6875 30.2812C2.04388 30.2812 2.38567 30.1397 2.63767 29.8877C2.88968 29.6357 3.03125 29.2939 3.03125 28.9375V23.5625H37.9688V28.9375C37.9688 29.2939 38.1103 29.6357 38.3623 29.8877C38.6143 30.1397 38.9561 30.2812 39.3125 30.2812C39.6689 30.2812 40.0107 30.1397 40.2627 29.8877C40.5147 29.6357 40.6562 29.2939 40.6562 28.9375V12.8125C40.6562 11.0306 39.9484 9.32164 38.6884 8.06163C37.4284 6.80162 35.7194 6.09375 33.9375 6.09375ZM3.03125 8.78125H15.125V20.875H3.03125V8.78125ZM17.8125 20.875V8.78125H33.9375C35.0067 8.78125 36.032 9.20597 36.788 9.96198C37.544 10.718 37.9687 11.7433 37.9688 12.8125V20.875H17.8125Z" fill="#0E3D4D"/>
</svg>
